<?xml version="1.0" encoding="utf-8"?>
<!-- Generator: Adobe Illustrator 22.1.0, SVG Export Plug-In . SVG Version: 6.00 Build 0)  -->
<svg version="1.1" id="Layer_1" xmlns="http://www.w3.org/2000/svg" xmlns:xlink="http://www.w3.org/1999/xlink" x="0px" y="0px"
	 viewBox="0 0 493.3 294" style="enable-background:new 0 0 493.3 294;" xml:space="preserve">
<style type="text/css">
	.st0{fill-rule:evenodd;clip-rule:evenodd;fill:#6D6E71;}
	.st1{fill:none;stroke:#6D6E71;stroke-width:0.216;stroke-miterlimit:2.6131;}
	.st2{fill-rule:evenodd;clip-rule:evenodd;fill:#C62930;}
	.st3{fill:none;stroke:#000000;stroke-width:0.216;stroke-miterlimit:2.6131;}
	.st4{fill:#C62930;}
</style>
<g>
	<polygon class="st0" points="250.1,40.5 250.1,35.3 279.4,35.3 279.4,40.5 267.5,40.5 267.5,88.8 262,88.8 262,40.5 	"/>
	<polygon class="st1" points="250.1,40.5 250.1,35.3 279.4,35.3 279.4,40.5 267.5,40.5 267.5,88.8 262,88.8 262,40.5 	"/>
	<polygon class="st0" points="209.2,104.5 209.2,51 210.3,51 245.9,91.9 245.9,51 251.2,51 251.2,104.5 250,104.5 214.7,64 
		214.7,104.5 	"/>
	<polygon class="st1" points="209.2,104.5 209.2,51 210.3,51 245.9,91.9 245.9,51 251.2,51 251.2,104.5 250,104.5 214.7,64 
		214.7,104.5 	"/>
	<path class="st2" d="M278.8,12.3c12.4,7.1,22,18.6,27.2,30.5c-2.1-4.7-4.8-9.2-7.9-13.4c4.6,6.2,7.7,12.2,9.9,19.8
		c-0.9-2.2-2.7-7-3.6-7.9c-8-17-23.3-30.6-41-36.1C270.7,6.5,274.3,9.8,278.8,12.3"/>
	<path class="st2" d="M310.8,69.9c-0.1-1.9-0.1-3.7-0.3-5.5C310.7,66.3,310.8,68.2,310.8,69.9"/>
	<path class="st2" d="M182.9,54.8c-0.4,2-0.8,4-1.1,6C182.1,58.8,182.4,56.8,182.9,54.8"/>
	<path class="st2" d="M255.2,6c-1.1-0.1-2.2-0.2-3.3-0.3c-8.3-1.1-17-0.6-25.4,1.7C235.5,4.8,245.9,3.9,255.2,6"/>
	<path class="st2" d="M263.8,9c8.1,2.5,15.7,7,21.5,12.5C279.4,16.1,272,11.6,263.8,9"/>
	<path class="st2" d="M201.6,109.7c0-0.1,0.2,0,0.4,0.1c0.2,0.2,0.3,0.3,0.5,0.4c2.1,2.3,4.3,4.5,6.8,6.4c-0.6-0.4-1.3-0.8-1.9-1.3
		C204.7,113,204.4,112.3,201.6,109.7"/>
	<path class="st2" d="M183.5,52.6l0-0.2c0.2-0.7,0.3-1.4,0.5-2l0.1-0.2C183.9,50.9,183.7,51.7,183.5,52.6"/>
	<path class="st2" d="M199,106.6c0.1-0.1,0.2-0.3,0.1-0.6c1.1,1.4,2.2,2.8,3.3,4.1c-0.2-0.1-0.3-0.3-0.5-0.3
		C201,109,200,107.5,199,106.6"/>
	<path class="st2" d="M187.1,69.6c0-1.1-0.3-2.1-0.3-2.6c0.4-2.9,0.9-5.7,1.7-8.9c0-0.5,0.3-1.6,0.4-2.7c0.3-0.6,0.6-1.2,0.8-1.8
		c-2.1,7.1-3,14.7-2.3,22.5C187.2,74,187.1,71.8,187.1,69.6"/>
	<path class="st2" d="M305.7,71.5c0.1,10.8-4.4,22.5-9.4,31.5c3.6-5,6.6-11.7,8.4-17.4c1.7-5.8,2.4-10.5,3.1-11.4
		c0.7-0.9,0.7,3.5-0.7,9.2c-1.3,5.7-4.2,12.4-6.5,16.7c0.7-1.1,0.7-1.1,1.4-2.2c-0.7,1.1-1.4,2.2-1.9,3.3c1.6-2.1,3.9-6.7,4.8-7.9
		c-0.2,0.8-0.4,1.6-0.6,2.3c3.9-5.8,6.8-18.6,7.4-25.7c-1.4,17-9.4,36.9-25.6,50.2c-15.8,13.6-39.2,18.9-59,13.5
		c-22.3-5.4-39.7-21.5-47.8-40.5c-1.6-3.6-3.8-12.8-3.9-19.6c-0.8-11.9,1.4-24,6.3-34.8C192.6,15.6,216.9,0.2,244,0
		c5.5,0.1,12.5,1.8-0.5,1.7c-10.8,0.5-21.5,3.4-31,8.5c0.9-1,5.7-3,7.9-4.1c-7.6,2.6-13.5,6-19.6,11c4.1-3.4,8.5-6.3,13.2-8.7
		c-11.8,5.8-23.1,16.2-29.7,29c-2.4,4.6-5.6,8.5-6.5,16.1c4.8-18.3,17.9-34.5,34.8-43.4l-0.1,0.1c7.5-4.1,15-6.3,23.2-7.4
		c-2.5,0.4-5.1,0.9-7.3,1.4c11.7-2.5,23.8-2,35,1.4c-16-4.1-34.3-2.6-49.7,5.5c-15.4,7.9-27.4,22.3-32.2,38.1
		c3.3-8.6,9.2-19.7,15.6-24.8c-10.4,10.8-17.2,25.2-18.4,40.7c0-1.1,0.1-2.3,0.1-3.4c-1.7,9.5-0.3,20,2.7,29.2
		c0.3,0.8,0.5,1.6,0.8,2.5c-0.3-0.8-0.5-1.6-0.8-2.5c-2.7-8.4-3.6-17.3-2.9-25.8c-0.1,3.9-0.1,8.1,0.4,13c-0.1-2.7-0.2-6.6,0-10.4
		c0.2-5,0.9-10.1,2.3-14.9c-2,7.5-2.4,15.2-1.5,22.1c-0.6-10.4,1.2-21.2,5.5-30.6c-2.2,5.2-3.7,10.8-4.5,16.4
		c-1.5,9.4-0.9,19.3,2,28.6l-0.3-1.1c0.2,0.7,0.5,1.4,0.7,2.1c1.2,3.6,2.7,7.2,4.6,10.6c1.7,3,3.7,5.8,6,8.3l1.1,1.3
		c-0.8-0.8-1.2-1.1,0.1,0.6c5.5,7.1,13.5,12.9,22.6,17.5c2.4,1.3,5.8,2.5,9.6,3.4c1,0.4,1.6,0.4,2.1,0.5c0.8,0.2,1.7,0.4,2.5,0.5
		c2,0.4,4.1,0.7,6.1,0.8c-2-0.2-4.1-0.4-6.1-0.8c-0.8-0.1-1.5-0.3-2.3-0.5c0.5,0,1.1,0,2.2,0.2c-14-2.8-27.3-10.8-36.8-22.2
		c0.7,0.6,1.6,1.5,2,1.8c-1-1-2.1-2.1-3-3.2c-3-3.8-5.6-7.8-7.6-12.1c0.7,1.3,1.4,2.4,2.1,3.3c-6.5-12-9.1-26-7.3-39.7
		c2-12.7,7.9-24.6,16.6-33.8c-4.9,4.8-9.1,10.7-12.1,17.4c7.5-18,24-32.1,42.9-36.5c-3.3,1.3-7.6,3.3-9.3,4.7
		c0.2,0.1,5.9-1.9,2.7-0.5c-11.6,5.5-18.8,11.5-21.2,16.3c-0.5,0.6,10.9-7,7.7-3.9c-2.8,2.3-7.5,6.8-11.3,12.7
		c-1.2,1.6-2.3,3.4-3.3,5.3c-0.1,0.2-0.3,0.7-0.4,1.2c-3.4,6.7-5.1,13.8-5.7,17.6c-0.2,1.5-0.5,2.9-0.6,4.4
		c-0.2,0.8-0.3,1.4-0.5,1.9c0.1,0.9,0.1,1.9,0.2,2.8c0,3.9,0.3,7.8,1.1,11.6c0.3,2.1,0.7,4.2,1.3,6.3c0.1-0.1,0.1-0.4,0.3-0.1
		c1.5,4.6,3.5,9,6.1,13c0.9,1.7,1.8,3.3,2.6,4.7c3.7,3.7,12.3,12.4,20.1,15.8l0,0c3.8,1.9,7.7,3.4,11.9,4.5c0.7,0.2,1.3,0.5,1.9,0.8
		c1.1,0.1,2.2,0.2,2.7,0.3c3.4,0.7,6.3,1.1,9.2,1.3c0.5-0.1,1.5-0.4,2.7-0.4c2.3,0,4.4-0.3,6.5-0.6c2.5-0.4,5-0.8,7.4-1.5
		c8.3-2.2,16.1-6.3,22.6-11.7c0.3-0.1,0.4,0,0.6,0c0.9-1,2.3-2.2,3.1-3.1c-0.1,0.2-0.2,0.3-0.1,0.4c2.5-3,3.2-3.4,5.5-6.1
		c0.5-0.7,0.8-1.3,1.2-2l0.7-0.9c2.8-3,4.5-6.7,6.1-10.8c1.8-4.1,3.1-8.4,4-12.9C304.8,75.3,305.3,73.9,305.7,71.5"/>
	<path class="st2" d="M210.1,117.3c3.2,2.5,6.7,4.7,10.4,6.5C216.4,122,212.9,120.1,210.1,117.3"/>
	<path class="st2" d="M211,23.1c1.4-0.7,3-1.5,4.7-2.3c-8.7,5-16.1,12.4-21.1,21.3l0,0C198.3,34.6,207.2,26.6,211,23.1"/>
	<path class="st2" d="M201.9,109.8c0.1,0.1,0.3,0.2,0.5,0.3l0,0C202.3,110,202.1,109.9,201.9,109.8"/>
	<path class="st2" d="M226.9,9.2l1-0.3c-2.6,0.8-5.2,1.7-7.7,2.8C222.2,10.8,224.5,9.9,226.9,9.2"/>
	<path class="st2" d="M256,8.2c5.5,1,10.8,2.7,15.9,5.1c6.4,3.2,12.1,7.7,16.5,12.6C279.8,17.1,268.5,10.7,256,8.2"/>
	<path class="st2" d="M228.7,15c2-0.5,4.1-0.7,6.2-1c-2.1,0.3-4.1,0.7-6.2,1.3C229.1,15.2,228.7,15.1,228.7,15"/>
	<path class="st2" d="M206.6,19.7l1.4-1c-1.1,0.9-2.2,1.9-3.2,2.8C205.1,21.1,206,20.3,206.6,19.7"/>
	<path class="st2" d="M250.9,14c-1.5-0.2-3.1-0.4-4.6-0.4c0.9-0.1,1.8,0,2.7-0.1C249.5,13.6,250.2,13.8,250.9,14"/>
	<path class="st2" d="M273.3,21.6c1.8,1.1,3.5,2.3,5,3.5c-2-1.4-4-2.8-6.2-4C272.7,21.3,273.1,21.4,273.3,21.6"/>
	<path class="st2" d="M299.3,102.8c-6.9,11.7-17.9,20.9-29.2,25.8c4.5-2,8.8-4.5,12.8-7.5c-6,4.4-11.6,7.4-18.8,9.7
		c2.2-0.7,6.7-2.6,7.7-3.2c16.4-7.7,29.2-22.7,34.1-39.7C304,94.8,301.7,98.6,299.3,102.8"/>
	<path class="st2" d="M244.3,133.8c1.8,0,3.6-0.1,5.3-0.2C247.8,133.8,245.9,133.8,244.3,133.8"/>
	<path class="st2" d="M259.4,8.6c-2-0.5-4-0.8-6-1.1C255.4,7.7,257.4,8.1,259.4,8.6"/>
	<path class="st2" d="M306.9,80.6c0.2-1.1,0.3-2.1,0.4-3.2c1-8.2,0.4-16.7-1.9-24.9C308,61.3,308.6,71.5,306.9,80.6"/>
	<path class="st2" d="M304.6,89.2c-2.5,8-6.9,15.5-12.1,21.5C297.7,104.7,302,97.3,304.6,89.2"/>
	<path class="st2" d="M202.1,24.6c0,0-0.1,0.1-0.2,0.3c-0.2,0.2-0.3,0.3-0.4,0.5c-2.4,2.3-4.6,4.7-6.6,7.4c0.5-0.7,0.9-1.3,1.5-1.9
		C198.6,28,199.2,27.4,202.1,24.6"/>
	<path class="st2" d="M261.6,9.2l0.2,0c0.7,0.2,1.3,0.4,2,0.6l0.2,0.1C263.2,9.6,262.4,9.4,261.6,9.2"/>
	<path class="st2" d="M205.3,21.8c0.1,0,0.2,0,0.4-0.2c-1.5,1.2-2.9,2.4-4.2,3.7c0.2-0.2,0.3-0.3,0.4-0.4
		C202.7,24,204.2,22.7,205.3,21.8"/>
	<path class="st2" d="M244.6,8.3c1.2,0,2.3,0,2.8,0c3.1,0.2,6.1,0.6,9.7,1.4c0.6,0.1,1.7,0.4,2.8,0.6c0.6,0.2,1.3,0.4,2,0.7
		c-7.6-2.3-15.9-3.1-24.3-2.3C239.9,8.4,242.2,8.3,244.6,8.3"/>
	<path class="st2" d="M242.7,132.5c-10.9,0-23.1-4.1-32-9.7c5.2,3.5,12,6.4,17.9,8c5.9,1.6,10.6,1.9,11.5,2.2c0.9,0.2-3.4,0.1-9-1.1
		c-5.6-1.2-12.4-3.8-16.6-6.2c1.1,0.6,1.1,0.6,2.3,1.2c-1.1-0.6-2.3-1.2-3.3-1.8c2.2,1.4,6.8,3.5,8.1,4.1l-2.2-0.8
		c5.9,3.2,18.3,5.7,25,5.7c-16.2-0.1-35.9-7.6-48.9-23.4c-13.3-15.4-18.1-38.3-12.8-57.3c5.6-21.5,21.8-37.6,39.9-44.3
		c3.4-1.4,12-3.5,18.3-3.7c11.1-0.6,22.4,1.6,32.3,6.5c21.2,10.3,35.7,32.5,35.8,57.7c-0.1,5-0.9,11.8-0.4-0.5
		c-0.2-10.2-2.8-20.4-7.7-29.5c0.7,1,2.7,5.4,3.6,7.6c-2.7-7.1-5.9-12.6-10.6-18.4c3.2,3.8,5.9,8,8.1,12.5
		c-5.5-11.2-15.2-21.8-27.2-28.2c-4.4-2.3-8.3-4.4-15.2-5.9c17.3,4.2,32.9,16.4,41.4,32.4l-0.1-0.1c3.8,7.1,6,14.3,7,22
		c-0.3-2.4-0.8-4.8-1.3-6.9c2.6,11.1,2.2,22.6-1,33.4c4.4-15.2,3-32.9-4.8-47.7c-7.7-14.9-21.5-26.4-36.8-31.2
		c8.6,2.7,18.9,9,24.3,14.8C278,13.8,263.9,7.3,248.9,6.3c1.1,0.1,2.2,0.1,3.3,0.3c-9.2-1.3-19.4-0.2-28.2,2.8
		c-0.8,0.3-1.6,0.5-2.4,0.8c0.8-0.3,1.6-0.5,2.4-0.8c8.1-2.7,16.6-3.6,24.9-3c-3.8-0.2-7.8-0.2-12.6,0.4c2.6-0.3,6.3-0.5,10.1-0.3
		c4.9,0.2,9.8,0.9,14.5,2.2c-7.3-1.9-14.8-2.5-21.6-1.9c10.2-0.8,20.8,1,30.2,5.1c-5.2-2.2-10.6-3.8-16.2-4.5
		c-9.3-1.3-19-0.7-28.2,2.2l1.1-0.3c-0.7,0.2-1.4,0.4-2.1,0.7c-3.6,1.2-7.1,2.7-10.4,4.5c-3,1.6-5.7,3.6-8.3,5.6l-1.3,1
		c0.8-0.7,1.2-1-0.4,0.2c-6.8,5.6-12.8,13.2-17.1,22.4c-1.2,2.4-2.4,5.7-3.4,9.4c-0.3,1-0.4,1.5-0.5,2c-0.2,0.8-0.4,1.6-0.5,2.5
		c-0.4,2-0.7,4-0.9,6c0.2-2,0.5-4,0.9-6c0.1-0.8,0.3-1.5,0.5-2.2c-0.1,0.5-0.2,1.1-0.4,2.2c2.7-13.8,10.5-27.1,21.9-36.4
		c-0.6,0.6-1.6,1.4-2,1.8c1.1-1,2.1-1.9,3.3-2.8c3.7-2.9,7.8-5.5,12.1-7.5c-1.3,0.6-2.4,1.3-3.4,1.8c11.8-6.5,25.9-9,39.3-7.1
		C266,9,277.8,14.8,287,23.4c-4.9-4.6-10.9-8.7-17.5-11.6c17.8,7.5,31.5,23.7,36.1,42.4c-0.9-3.3-2.7-7.8-3.7-9.7
		c0.1,0.1,2.2,5.9,0.9,2.6c-5-12-11.5-19.1-15.6-22.4c-0.4-0.9,8.6,10.3,5.5,6.9c-2.4-3-7.1-8.2-13.3-12.4c-1.8-1.2-3.7-2.4-5.7-3.5
		c-0.3-0.1-0.7-0.3-1.3-0.6c-7.2-3.7-14.8-5.5-19-6.1c-1.6-0.2-3.1-0.4-4.7-0.5c-0.8-0.1-1.5-0.2-2.1-0.2c-1,0-2,0-3,0
		c-4.2,0-8.4,0.5-12.4,1.3c-2.2,0.5-4.5,1-6.6,1.7c0.1,0,0.4-0.1,0,0.1c-4.9,1.6-9.6,3.8-13.9,6.6c-1.8,1.1-3.4,2.2-4.7,3.2
		c-4.4,3.4-13.4,12.8-17.1,21.1l0,0c-2,4-3.6,8.3-4.7,12.7c-0.2,0.7-0.4,1.4-0.6,2.1c-0.2,1.1-0.4,2.3-0.5,2.8
		c-0.6,3.6-0.9,6.7-1,9.8c0,0.6,0.1,1.6,0.2,2.8c0.1,2.4,0.3,4.7,0.7,6.9c0.4,2.6,0.9,5.3,1.7,7.9c2.5,8.8,7,16.9,12.8,23.6
		c0.2,0.2,0.2,0.3,0.2,0.4c1,1,2.3,2.5,3.2,3.3c-0.2-0.2-0.3-0.3-0.3-0.2c3,2.8,3.6,3.3,6.5,5.6c0.7,0.5,1.3,0.9,2,1.4l1,0.7
		c3.4,2.4,7.1,4.3,11.5,6c4.3,1.7,8.8,3,13.4,3.7C238.7,132.2,240.1,132.4,242.7,132.5"/>
	<path class="st2" d="M194.1,33.6c-2.6,3.5-4.7,7.2-6.5,11.1C189.4,40.5,191.5,36.9,194.1,33.6"/>
	<path class="st2" d="M294.5,34.1c0.9,1.4,1.9,3,2.9,4.8c-5.5-9.4-13.4-17.4-23.1-22.8l0,0C282.4,20.2,291.4,29.5,294.5,34.1"/>
	<path class="st2" d="M201.9,24.9c-0.1,0.1-0.3,0.3-0.4,0.4l0,0C201.5,25.2,201.7,25,201.9,24.9"/>
	<path class="st2" d="M304.9,52.5l0.3,1c-0.7-2.6-1.6-5.2-2.7-7.8C303.4,47.8,304.3,50.1,304.9,52.5"/>
	<path class="st2" d="M306.2,81.7c-1,5.5-2.8,10.9-5.2,15.9c-3.2,6.5-7.5,12.2-12.3,16.9C297.5,105.7,303.8,94.2,306.2,81.7"/>
	<path class="st2" d="M303.5,53c0.6,2.2,1,4.4,1.4,6.7C304.5,57.4,304.1,55.2,303.5,53C303.6,53.4,303.5,53.1,303.5,53"/>
	<path class="st2" d="M294.7,32l1,1.4c-0.8-1.2-1.8-2.3-2.7-3.4C293.3,30.4,294.1,31.4,294.7,32"/>
	<path class="st2" d="M305.3,77.1c0.2-1.7,0.3-3.3,0.4-5c0,1-0.1,2-0.1,3C305.5,75.6,305.4,76.3,305.3,77.1"/>
	<path class="st2" d="M296.9,101.5c-1.2,2-2.5,3.8-3.8,5.5c1.6-2.1,3.1-4.4,4.4-6.7C297.3,100.9,297.1,101.3,296.9,101.5"/>
	<path d="M428.6,246.2v-70h1.5l46.5,53.6v-53.6h6.9v70H482l-46.1-52.9v52.9H428.6z M331.2,176.2h7.2l14.2,50.4l20.1-50.4h1.4
		l19.8,50.4l14.5-50.4h7.1l-20.1,70h-1.3l-20.7-52.9l-21.2,52.9h-1.3L331.2,176.2z M284.1,181.3c-5.2,0-10.1,1.3-14.7,4
		c-4.6,2.7-8.2,6.3-10.8,10.9c-2.6,4.6-3.9,9.7-3.9,15.3c0,8.3,2.9,15.3,8.6,21.1c5.7,5.7,12.7,8.6,20.8,8.6c5.4,0,10.4-1.3,15-3.9
		c4.6-2.6,8.2-6.2,10.8-10.8c2.6-4.6,3.9-9.6,3.9-15.2c0-5.6-1.3-10.6-3.9-15.1c-2.6-4.5-6.2-8.1-10.9-10.8
		C294.4,182.6,289.4,181.3,284.1,181.3z M283.8,174.4c10.6,0,19.4,3.5,26.6,10.6c7.1,7.1,10.7,15.8,10.7,26.1
		c0,10.2-3.6,18.9-10.7,26c-7.1,7.1-15.8,10.7-26,10.7c-10.4,0-19.1-3.5-26.2-10.6c-7.1-7.1-10.7-15.7-10.7-25.8
		c0-6.7,1.6-13,4.9-18.7c3.2-5.7,7.7-10.2,13.3-13.5C271.2,176.1,277.3,174.4,283.8,174.4z M202,183v-6.8h38.4v6.8h-15.6v63.2h-7.1
		V183H202z M158,181.3c-5.2,0-10.1,1.3-14.7,4c-4.6,2.7-8.2,6.3-10.8,10.9c-2.6,4.6-3.9,9.7-3.9,15.3c0,8.3,2.9,15.3,8.6,21.1
		c5.7,5.7,12.7,8.6,20.8,8.6c5.4,0,10.4-1.3,15-3.9c4.6-2.6,8.2-6.2,10.8-10.8c2.6-4.6,3.9-9.6,3.9-15.2c0-5.6-1.3-10.6-3.9-15.1
		c-2.6-4.5-6.2-8.1-10.9-10.8C168.2,182.6,163.3,181.3,158,181.3z M157.7,174.4c10.6,0,19.4,3.5,26.6,10.6
		c7.1,7.1,10.7,15.8,10.7,26.1c0,10.2-3.6,18.9-10.7,26c-7.1,7.1-15.8,10.7-26,10.7c-10.4,0-19.1-3.5-26.2-10.6
		c-7.1-7.1-10.7-15.7-10.7-25.8c0-6.7,1.6-13,4.9-18.7c3.2-5.7,7.7-10.2,13.3-13.5C145.1,176.1,151.1,174.4,157.7,174.4z
		 M72.1,176.2h40.1v6.9H79.1V205H112v6.8H79.1v27.4H112v6.9H72.1V176.2z M0.1,246.2v-70h1.5l46.5,53.6v-53.6H55v70h-1.6L7.3,193.3
		v52.9H0.1z"/>
	<path class="st3" d="M428.6,246.2v-70h1.5l46.5,53.6v-53.6h6.9v70H482l-46.1-52.9v52.9H428.6z M331.2,176.2h7.2l14.2,50.4
		l20.1-50.4h1.4l19.8,50.4l14.5-50.4h7.1l-20.1,70h-1.3l-20.7-52.9l-21.2,52.9h-1.3L331.2,176.2z M284.1,181.3
		c-5.2,0-10.1,1.3-14.7,4c-4.6,2.7-8.2,6.3-10.8,10.9c-2.6,4.6-3.9,9.7-3.9,15.3c0,8.3,2.9,15.3,8.6,21.1c5.7,5.7,12.7,8.6,20.8,8.6
		c5.4,0,10.4-1.3,15-3.9c4.6-2.6,8.2-6.2,10.8-10.8c2.6-4.6,3.9-9.6,3.9-15.2c0-5.6-1.3-10.6-3.9-15.1c-2.6-4.5-6.2-8.1-10.9-10.8
		C294.4,182.6,289.4,181.3,284.1,181.3z M283.8,174.4c10.6,0,19.4,3.5,26.6,10.6c7.1,7.1,10.7,15.8,10.7,26.1
		c0,10.2-3.6,18.9-10.7,26c-7.1,7.1-15.8,10.7-26,10.7c-10.4,0-19.1-3.5-26.2-10.6c-7.1-7.1-10.7-15.7-10.7-25.8
		c0-6.7,1.6-13,4.9-18.7c3.2-5.7,7.7-10.2,13.3-13.5C271.2,176.1,277.3,174.4,283.8,174.4z M202,183v-6.8h38.4v6.8h-15.6v63.2h-7.1
		V183H202z M158,181.3c-5.2,0-10.1,1.3-14.7,4c-4.6,2.7-8.2,6.3-10.8,10.9c-2.6,4.6-3.9,9.7-3.9,15.3c0,8.3,2.9,15.3,8.6,21.1
		c5.7,5.7,12.7,8.6,20.8,8.6c5.4,0,10.4-1.3,15-3.9c4.6-2.6,8.2-6.2,10.8-10.8c2.6-4.6,3.9-9.6,3.9-15.2c0-5.6-1.3-10.6-3.9-15.1
		c-2.6-4.5-6.2-8.1-10.9-10.8C168.2,182.6,163.3,181.3,158,181.3z M157.7,174.4c10.6,0,19.4,3.5,26.6,10.6
		c7.1,7.1,10.7,15.8,10.7,26.1c0,10.2-3.6,18.9-10.7,26c-7.1,7.1-15.8,10.7-26,10.7c-10.4,0-19.1-3.5-26.2-10.6
		c-7.1-7.1-10.7-15.7-10.7-25.8c0-6.7,1.6-13,4.9-18.7c3.2-5.7,7.7-10.2,13.3-13.5C145.1,176.1,151.1,174.4,157.7,174.4z
		 M72.1,176.2h40.1v6.9H79.1V205H112v6.8H79.1v27.4H112v6.9H72.1V176.2z M0.1,246.2v-70h1.5l46.5,53.6v-53.6H55v70h-1.6L7.3,193.3
		v52.9H0.1z"/>
	<path class="st4" d="M485.7,294c0.8-1.8,1.4-3.1,1.8-4.1c0.3-1,0.7-2,0.9-3.3c0.3-1.2,0.5-2.4,0.6-3.5c0.1-1.1,0.2-2.3,0.2-3.4
		c0-2.4-0.2-4.6-0.8-6.8c-0.5-2.1-1.4-4.7-2.8-7.7h2.9c1.5,2.1,2.7,4.4,3.5,6.8c0.8,2.4,1.3,4.9,1.3,7.3c0,2.1-0.3,4.3-1,6.7
		c-0.7,2.7-2,5.3-3.7,7.9H485.7z M484,271.6v3.4h-2.9v6.4c0,1.3,0,2.1,0.1,2.3c0.1,0.2,0.2,0.4,0.4,0.5c0.2,0.1,0.4,0.2,0.7,0.2
		c0.4,0,1-0.1,1.7-0.4l0.4,3.3c-1,0.4-2.1,0.6-3.3,0.6c-0.8,0-1.4-0.1-2.1-0.4c-0.6-0.3-1.1-0.6-1.3-1c-0.3-0.4-0.5-1-0.6-1.6
		c-0.1-0.5-0.1-1.5-0.1-3V275h-1.9v-3.4h1.9v-3.2l4.2-2.5v5.6H484z M458.1,283l4.2-0.6c0.2,0.8,0.5,1.4,1.1,1.9
		c0.5,0.4,1.3,0.6,2.3,0.6c1.1,0,1.9-0.2,2.5-0.6c0.4-0.3,0.6-0.7,0.6-1.1c0-0.3-0.1-0.6-0.3-0.8c-0.2-0.2-0.7-0.4-1.4-0.6
		c-3.4-0.7-5.6-1.4-6.5-2c-1.3-0.9-1.9-2.1-1.9-3.6c0-1.4,0.5-2.5,1.6-3.5c1.1-0.9,2.8-1.4,5.1-1.4c2.2,0,3.8,0.4,4.9,1.1
		c1.1,0.7,1.8,1.8,2.2,3.2l-4,0.7c-0.2-0.6-0.5-1.1-1-1.4c-0.5-0.3-1.1-0.5-2-0.5c-1.1,0-1.9,0.2-2.4,0.5c-0.3,0.2-0.5,0.5-0.5,0.9
		c0,0.3,0.1,0.6,0.4,0.8c0.4,0.3,1.7,0.7,3.9,1.2c2.2,0.5,3.8,1.1,4.7,1.9c0.9,0.8,1.3,1.8,1.3,3.1c0,1.5-0.6,2.7-1.8,3.8
		c-1.2,1.1-3,1.6-5.4,1.6c-2.2,0-3.9-0.4-5.2-1.3C459.3,285.7,458.5,284.5,458.1,283z M452,278.2c0-1.2-0.3-2.1-0.9-2.8
		c-0.6-0.6-1.3-1-2.2-1c-0.9,0-1.7,0.3-2.3,1c-0.6,0.7-0.9,1.6-0.9,2.7H452z M451.7,282.5l4.2,0.7c-0.5,1.5-1.4,2.7-2.6,3.5
		c-1.2,0.8-2.6,1.2-4.4,1.2c-2.8,0-4.8-0.9-6.1-2.7c-1-1.4-1.6-3.3-1.6-5.5c0-2.6,0.7-4.7,2.1-6.2c1.4-1.5,3.1-2.2,5.2-2.2
		c2.4,0,4.2,0.8,5.6,2.3c1.4,1.6,2,4,2,7.2h-10.6c0,1.2,0.4,2.2,1,2.9c0.6,0.7,1.5,1,2.4,1c0.7,0,1.2-0.2,1.7-0.5
		C451.2,283.8,451.5,283.3,451.7,282.5z M416.7,287.5l-5.2-22h4.5l3.3,15.1l4-15.1h5.3l3.9,15.3l3.4-15.3h4.5l-5.3,22h-4.7
		l-4.4-16.4l-4.4,16.4H416.7z M410.3,294h-2.9c-1.5-2.3-2.7-4.7-3.5-7.2c-0.8-2.5-1.2-4.9-1.2-7.2c0-2.9,0.5-5.6,1.5-8.2
		c0.9-2.2,1.9-4.3,3.3-6.2h2.9c-1.4,3-2.3,5.6-2.8,7.7c-0.5,2.1-0.8,4.4-0.8,6.8c0,1.6,0.1,3.3,0.5,5c0.3,1.7,0.7,3.4,1.3,4.9
		C408.8,290.6,409.4,292.1,410.3,294z M384.3,278.8l-3-8.2l-3,8.2H384.3z M392.5,287.5h-4.8l-1.9-5h-8.8l-1.8,5h-4.7l8.6-22h4.7
		L392.5,287.5z M354.9,269.3v14.5h3.3c1.2,0,2.1-0.1,2.7-0.2c0.7-0.2,1.3-0.5,1.8-0.9c0.5-0.4,0.9-1.1,1.2-2.1c0.3-1,0.4-2.3,0.4-4
		c0-1.7-0.2-3-0.4-3.9c-0.3-0.9-0.7-1.6-1.3-2.1c-0.5-0.5-1.2-0.9-2.1-1c-0.6-0.1-1.8-0.2-3.6-0.2H354.9z M350.5,265.6h8.1
		c1.8,0,3.2,0.1,4.2,0.4c1.3,0.4,2.4,1.1,3.3,2c0.9,1,1.6,2.2,2.1,3.6c0.5,1.4,0.7,3.1,0.7,5.2c0,1.8-0.2,3.4-0.7,4.7
		c-0.5,1.6-1.3,2.9-2.4,3.9c-0.8,0.8-1.8,1.3-3.1,1.8c-1,0.3-2.3,0.5-3.9,0.5h-8.3V265.6z M341.8,287.5v-22h4.4v22H341.8z
		 M321.8,276.5c0,2.5,0.6,4.4,1.7,5.7c1.1,1.3,2.6,1.9,4.4,1.9c1.8,0,3.2-0.6,4.4-1.9c1.1-1.3,1.7-3.2,1.7-5.7
		c0-2.5-0.6-4.4-1.7-5.6c-1.1-1.2-2.6-1.9-4.4-1.9c-1.8,0-3.3,0.6-4.4,1.9C322.3,272.1,321.8,274,321.8,276.5z M317.2,276.7
		c0-2.2,0.3-4.1,1-5.6c0.5-1.1,1.2-2.1,2-3c0.9-0.9,1.8-1.5,2.8-2c1.4-0.6,2.9-0.9,4.7-0.9c3.2,0,5.8,1,7.8,3c1.9,2,2.9,4.8,2.9,8.4
		c0,3.5-1,6.3-2.9,8.3c-1.9,2-4.5,3-7.7,3c-3.3,0-5.9-1-7.8-3C318.2,282.9,317.2,280.2,317.2,276.7z M296,287.5v-22h4.3l9,14.7
		v-14.7h4.1v22H309l-8.9-14.3v14.3H296z M269.7,274.9h3.3c2.1,0,3.5-0.1,4-0.3c0.5-0.2,0.9-0.5,1.2-0.9c0.3-0.4,0.4-1,0.4-1.6
		c0-0.7-0.2-1.3-0.6-1.8c-0.4-0.5-1-0.7-1.7-0.9c-0.4,0-1.4-0.1-3.2-0.1h-3.5V274.9z M265.3,287.5v-22h9.3c2.3,0,4.1,0.2,5.1,0.6
		c1.1,0.4,1.9,1.1,2.6,2.1c0.6,1,1,2.2,1,3.5c0,1.6-0.5,3-1.5,4.1c-1,1.1-2.4,1.7-4.3,2c1,0.6,1.8,1.2,2.4,1.8
		c0.6,0.7,1.5,1.9,2.5,3.6l2.7,4.3h-5.3l-3.2-4.8c-1.1-1.7-1.9-2.8-2.3-3.2c-0.4-0.4-0.9-0.7-1.3-0.9c-0.5-0.2-1.2-0.2-2.2-0.2h-0.9
		v9.2H265.3z M244.8,287.5v-22h16.3v3.7h-11.9v4.9h11v3.7h-11v6h12.3v3.7H244.8z M231,287.5v-18.3h-6.5v-3.7h17.5v3.7h-6.5v18.3H231
		z M215.5,278.8l-3-8.2l-3,8.2H215.5z M223.7,287.5h-4.8l-1.9-5h-8.8l-1.8,5h-4.7l8.6-22h4.7L223.7,287.5z M183.4,287.5v-22h16.3
		v3.7h-11.9v4.9h11v3.7h-11v6h12.3v3.7H183.4z M165.7,274.9h3.3c2.1,0,3.5-0.1,4-0.3c0.5-0.2,0.9-0.5,1.2-0.9c0.3-0.4,0.4-1,0.4-1.6
		c0-0.7-0.2-1.3-0.6-1.8c-0.4-0.5-1-0.7-1.7-0.9c-0.4,0-1.4-0.1-3.2-0.1h-3.5V274.9z M161.2,287.5v-22h9.3c2.3,0,4,0.2,5.1,0.6
		c1.1,0.4,1.9,1.1,2.6,2.1c0.6,1,1,2.2,1,3.5c0,1.6-0.5,3-1.5,4.1c-1,1.1-2.4,1.7-4.3,2c1,0.6,1.8,1.2,2.4,1.8
		c0.6,0.7,1.5,1.9,2.5,3.6l2.7,4.3h-5.3l-3.2-4.8c-1.1-1.7-1.9-2.8-2.3-3.2c-0.4-0.4-0.9-0.7-1.3-0.9c-0.5-0.2-1.2-0.2-2.2-0.2h-0.9
		v9.2H161.2z M147.6,279.5v-3.7h9.6v8.8c-0.9,0.9-2.3,1.7-4,2.4c-1.8,0.7-3.5,1-5.4,1c-2.3,0-4.3-0.5-6-1.4c-1.7-1-3-2.3-3.9-4.1
		c-0.9-1.8-1.3-3.7-1.3-5.9c0-2.3,0.5-4.3,1.4-6.1c1-1.8,2.4-3.1,4.2-4.1c1.4-0.7,3.2-1.1,5.3-1.1c2.7,0,4.9,0.6,6.4,1.7
		c1.5,1.1,2.5,2.7,3,4.7l-4.4,0.8c-0.3-1.1-0.9-1.9-1.8-2.6c-0.9-0.6-1.9-0.9-3.2-0.9c-1.9,0-3.5,0.6-4.6,1.8
		c-1.1,1.2-1.7,3.1-1.7,5.5c0,2.6,0.6,4.6,1.7,5.9c1.2,1.3,2.7,2,4.6,2c0.9,0,1.9-0.2,2.8-0.5c0.9-0.4,1.7-0.8,2.4-1.3v-2.8H147.6z"
		/>
</g>
</svg>
