<?xml version="1.0" encoding="utf-8"?>
<!-- Generator: Adobe Illustrator 22.1.0, SVG Export Plug-In . SVG Version: 6.00 Build 0)  -->
<svg version="1.1" id="Layer_1" xmlns="http://www.w3.org/2000/svg" xmlns:xlink="http://www.w3.org/1999/xlink" x="0px" y="0px"
	 viewBox="0 0 622 246.8" style="enable-background:new 0 0 622 246.8;" xml:space="preserve">
<style type="text/css">
	.st0{fill-rule:evenodd;clip-rule:evenodd;fill:#D2E288;}
	.st1{fill-rule:evenodd;clip-rule:evenodd;fill:#43525A;}
	.st2{fill-rule:evenodd;clip-rule:evenodd;fill:#414042;}
	.st3{fill-rule:evenodd;clip-rule:evenodd;fill:#0095DA;}
	.st4{fill-rule:evenodd;clip-rule:evenodd;fill:#8ED8F8;}
	.st5{fill-rule:evenodd;clip-rule:evenodd;fill:#CD8C5D;}
	.st6{fill-rule:evenodd;clip-rule:evenodd;fill:#58595B;}
	.st7{fill-rule:evenodd;clip-rule:evenodd;fill:#FFE293;}
	.st8{fill-rule:evenodd;clip-rule:evenodd;fill:#FFCB05;}
	.st9{fill-rule:evenodd;clip-rule:evenodd;fill:#D71920;}
	.st10{fill-rule:evenodd;clip-rule:evenodd;fill:#C4161C;}
	.st11{fill-rule:evenodd;clip-rule:evenodd;fill:#F8ABAD;}
	.st12{fill-rule:evenodd;clip-rule:evenodd;fill:#005BAA;}
	.st13{fill-rule:evenodd;clip-rule:evenodd;fill:#6D6E71;}
	.st14{fill-rule:evenodd;clip-rule:evenodd;fill:#0089CF;}
	.st15{fill-rule:evenodd;clip-rule:evenodd;fill:#00B8EC;}
	.st16{fill-rule:evenodd;clip-rule:evenodd;fill:#A6CE39;}
	.st17{fill:#D71920;}
</style>
<g>
	<polygon class="st0" points="577.4,38 577.8,21.7 568.3,10.3 563.4,44.9 576.4,45.4 	"/>
	<path class="st1" d="M610.8,48.6l10.3,13.8l-27.7,13.9l-20-14.6c0,0,28.1-10.7,29.3-11.6C603.9,49.1,610.8,48.6,610.8,48.6"/>
	<polygon class="st1" points="609.2,86.5 622,100 596.4,98.8 578.8,93.5 543.7,70.3 543.9,69.8 565.1,67.5 596.4,84.7 	"/>
	<polygon class="st2" points="449.4,166.6 446.6,168.1 457.5,180.3 490.6,192.5 477.4,178 458.8,168.1 	"/>
	<polygon class="st2" points="461.4,154.1 437.4,154.1 427.8,141.3 445.8,135.8 471,136.5 467.7,149.5 	"/>
	<polygon class="st3" points="502.1,160 490.6,192.5 477.3,178.9 485.3,139.6 495,146.7 	"/>
	<polygon class="st4" points="490.1,120.5 495.2,117 507.4,127.6 520.1,162.1 519.1,170.4 489.6,124.1 	"/>
	<polygon class="st5" points="510,55.2 523.1,71.6 563.4,33.9 566.9,9.9 563.7,2 547.9,19 	"/>
	<path class="st6" d="M471.8,44.4l7.9,11.7L523,71.6l-12.3-15.9l-33.4-11.6C477.4,44.1,471.5,44.7,471.8,44.4"/>
	<path class="st7" d="M527.5,0l10.2,9.6l-0.9,13.5l-12.3,6.4c0,0-2.3-14.3-2.1-15.8C522.7,12.2,527.5,0,527.5,0"/>
	<polygon class="st8" points="514.2,60.2 557.2,18 564,1.9 528.1,23.5 527.5,0 491.6,12.4 497.8,33.4 465,33.4 471.9,45 	"/>
	<polygon class="st9" points="431.4,68.1 456.2,70.5 455.4,36.5 470.6,48.9 477.4,56.9 494.6,97.7 463.8,127.8 434.2,135.8 
		428.6,129.8 447.8,99.3 422.2,104.9 	"/>
	<polygon class="st10" points="485.8,83.3 433.2,134.8 434.2,135.8 463.8,127.8 494.6,97.7 489.5,85.6 	"/>
	<polygon class="st11" points="469.6,48.1 482.6,86.5 494.1,98.3 494.6,97.7 477.4,56.9 470.6,48.9 	"/>
	<polygon class="st12" points="478.4,180.1 489.1,149.8 522.4,185.7 519.1,169.1 495.2,117 441.5,131.2 427.8,141.4 463.7,143.4 
		446.6,168.1 	"/>
	<polygon class="st13" points="601.3,96.1 611.3,107.9 582.9,125.8 558.9,113 587,98.6 596,95.7 	"/>
	<polygon class="st14" points="590.2,127.9 600.1,139.2 571.7,171.8 560.4,160.2 572.7,135.3 582.2,128.6 	"/>
	<polygon class="st14" points="538.5,135.7 555.1,150.4 533.4,191.2 521.7,180.2 534.3,144.3 	"/>
	<polygon class="st15" points="560.4,160.2 542.2,141.5 521.7,180.2 518.9,166.3 533.9,107.5 589.1,90.7 601.3,96.1 567.6,115.4 
		590.2,127.9 	"/>
	<polygon class="st16" points="592.9,21 569.2,42.4 568.3,10.3 557.4,19.8 543.7,70.3 588.1,87.5 609.2,86.5 582.7,63.8 610.8,48.6 
			"/>
	<path class="st17" d="M249.9,68.3V19.8h-37.5v168.3v9c0,0,0,9,7.4,17.4l33.3,32.3l22.5-27.2l-21.9-20.3c-4.9-5.5-4.1-5.6-4.4-14.3
		V100h25.3l12.1-31.7H249.9z"/>
	<path class="st17" d="M52.1,58.3v40.1h8.4L91.6,71c0,0,11.1-12.7-7.9-12.7H52.1z M15.4,132.4v-114h83.1c0,0,42.7,1.6,42.7,34
		c0,0,5.5,21.4-19.8,43.5l-68.1,64.9v34.8H10.7v-22.2C10.7,173.6-16.2,152.2,15.4,132.4z"/>
	<path class="st17" d="M135.7,96.8l15.8-28.5H180c0,0,24.5-4,25.3,24.5v82.3c0,0,4.8,20.6-13.4,20.6h-13.5V138c0,0,1.6-13.5-7.9-5.5
		l-11.9,15.8c0,0-7.9,8.7,0.8,13.5l7.9,4V187c0,0-0.8,8.7-10.3,8.7h-31.7c0,0-17.4,4-19-22.9c0,0,1.6-15.3,15.3-29l33.2-35.3
		c0,0,12.7-10-3.2-10C151.8,98.4,133.6,101.6,135.7,96.8"/>
	<polygon class="st17" points="369.7,15.6 369.7,197.7 405,197.7 405,15.1 	"/>
	<path class="st17" d="M314.3,146.4h44.8V94.7c0,0,3.2-33.2-30.6-33.2c0,0-21.1-3.2-35.9,25.3l-33.2,63.8c0,0-23.2,44.8,21.6,47
		h78.1v-35.3h-53.8c0,0-17.4,0.5-5.8-22.2l19.5-35.3c0,0,11.6-14.2,11.6,1.6v11.6c0,0-7.4-2.6-17.9,12.1
		C312.7,130.1,299.5,146.4,314.3,146.4"/>
</g>
</svg>
